# xmcd
#
# Track frame offsets: 
#        150
#        13539
#        26758
#        36842
#        51689
#        62539
#        78787
#        95783
#        108254
#        124127
#        133146
#        161351
#
# Disc length: 4387 seconds
#
# Revision: 0
# Processed by: cddbd v1.5.2PL0 Copyright (c) Steve Scherf et al.
# Submitted via: ExactAudioCopy v0.95b3
#
DISCID=9d11210c
DTITLE=Badge - Kill Another Fuzz
DYEAR=2006
DGENRE=
TTITLE0=Kill Another Fuzz
TTITLE1=Agony
TTITLE2=What's Going On
TTITLE3=Dogs world
TTITLE4=Admass
TTITLE5=Pleasure
TTITLE6=Addiction
TTITLE7=Walk This Line
TTITLE8=Roll The Dice
TTITLE9=Sicko
TTITLE10=Emigration
TTITLE11=Kill Another Fuzz (video)
EXTD=
EXTT0=
EXTT1=
EXTT2=
EXTT3=
EXTT4=
EXTT5=
EXTT6=
EXTT7=
EXTT8=
EXTT9=
EXTT10=
EXTT11=
PLAYORDER=
